<svg xmlns="http://www.w3.org/2000/svg" viewBox="-6 -6 147.03125 36"><defs><linearGradient id="flow" gradientUnits="userSpaceOnUse" x1="7" y1="14" x2="40" y2="10"><stop offset="0" stop-color="#2563EB"/><stop offset="1" stop-color="#06B6D4"/></linearGradient><filter id="glow" x="-20%" y="-60%" width="140%" height="220%"><feGaussianBlur stdDeviation="0.7"/></filter></defs><polygon points="0,0 7,0 19,12 7,24 0,24 12,12" fill="#F8FAFC"/><polygon points="27,0 34,0 46,12 34,24 27,24 39,12" fill="#F8FAFC"/><g filter="url(#glow)" opacity="0.3"><path d="M 6.97 9.70 L 7.36 9.78 L 7.74 9.89 L 8.12 10.02 L 8.51 10.16 L 8.89 10.31 L 9.28 10.46 L 9.67 10.61 L 10.07 10.76 L 10.46 10.91 L 10.86 11.05 L 11.27 11.18 L 11.67 11.30 L 12.08 11.41 L 12.49 11.50 L 12.90 11.58 L 13.32 11.64 L 13.74 11.68 L 14.16 11.70 L 14.58 11.70 L 15.00 11.69 L 15.42 11.66 L 15.83 11.61 L 16.25 11.55 L 16.67 11.47 L 17.08 11.38 L 17.49 11.28 L 17.90 11.17 L 18.31 11.05 L 18.71 10.93 L 19.11 10.80 L 19.51 10.67 L 19.91 10.54 L 20.31 10.42 L 20.70 10.29 L 21.09 10.18 L 21.48 10.07 L 21.87 9.97 L 22.25 9.88 L 22.63 9.80 L 23.01 9.74 L 23.39 9.69 L 23.77 9.66 L 24.14 9.65 L 24.52 9.65 L 24.89 9.67 L 25.26 9.71 L 25.64 9.76 L 26.01 9.83 L 26.39 9.93 L 26.77 10.03 L 27.15 10.16 L 27.53 10.30 L 27.92 10.45 L 28.30 10.61 L 28.69 10.79 L 29.08 10.98 L 29.48 11.17 L 29.87 11.37 L 30.27 11.57 L 30.67 11.77 L 31.08 11.97 L 31.49 12.16 L 31.91 12.34 L 32.32 12.49 L 32.68 11.51 L 32.29 11.37 L 31.92 11.21 L 31.53 11.02 L 31.14 10.83 L 30.74 10.63 L 30.35 10.43 L 29.94 10.23 L 29.54 10.03 L 29.14 9.84 L 28.73 9.65 L 28.32 9.48 L 27.91 9.31 L 27.49 9.16 L 27.07 9.03 L 26.66 8.91 L 26.24 8.81 L 25.82 8.73 L 25.39 8.66 L 24.97 8.62 L 24.55 8.60 L 24.12 8.60 L 23.70 8.61 L 23.28 8.65 L 22.86 8.70 L 22.45 8.77 L 22.03 8.85 L 21.62 8.95 L 21.21 9.05 L 20.80 9.17 L 20.39 9.29 L 19.99 9.42 L 19.59 9.54 L 19.19 9.67 L 18.79 9.80 L 18.40 9.93 L 18.01 10.05 L 17.62 10.16 L 17.23 10.27 L 16.84 10.36 L 16.46 10.44 L 16.08 10.51 L 15.70 10.57 L 15.32 10.61 L 14.94 10.64 L 14.56 10.65 L 14.19 10.65 L 13.81 10.64 L 13.43 10.61 L 13.05 10.57 L 12.67 10.52 L 12.28 10.46 L 11.89 10.38 L 11.50 10.30 L 11.11 10.21 L 10.71 10.11 L 10.31 10.01 L 9.91 9.90 L 9.50 9.79 L 9.09 9.68 L 8.68 9.58 L 8.27 9.49 L 7.86 9.40 L 7.44 9.34 L 7.03 9.30 Z" fill="url(#flow)"/><path d="M 7.03 14.70 L 7.44 14.66 L 7.86 14.60 L 8.27 14.51 L 8.68 14.42 L 9.09 14.32 L 9.50 14.21 L 9.91 14.10 L 10.31 13.99 L 10.71 13.89 L 11.11 13.79 L 11.50 13.70 L 11.89 13.62 L 12.28 13.54 L 12.67 13.48 L 13.05 13.43 L 13.43 13.39 L 13.81 13.36 L 14.19 13.35 L 14.56 13.35 L 14.94 13.36 L 15.32 13.39 L 15.70 13.43 L 16.08 13.49 L 16.46 13.56 L 16.84 13.64 L 17.23 13.73 L 17.62 13.84 L 18.01 13.95 L 18.40 14.07 L 18.79 14.20 L 19.19 14.33 L 19.59 14.46 L 19.99 14.58 L 20.39 14.71 L 20.80 14.83 L 21.21 14.95 L 21.62 15.05 L 22.03 15.15 L 22.45 15.23 L 22.86 15.30 L 23.28 15.35 L 23.70 15.39 L 24.12 15.40 L 24.55 15.40 L 24.97 15.38 L 25.39 15.34 L 25.82 15.27 L 26.24 15.19 L 26.66 15.09 L 27.07 14.97 L 27.49 14.84 L 27.91 14.69 L 28.32 14.52 L 28.73 14.35 L 29.14 14.16 L 29.54 13.97 L 29.94 13.77 L 30.35 13.57 L 30.74 13.37 L 31.14 13.17 L 31.53 12.98 L 31.92 12.79 L 32.29 12.63 L 32.68 12.49 L 32.32 11.51 L 31.91 11.66 L 31.49 11.84 L 31.08 12.03 L 30.67 12.23 L 30.27 12.43 L 29.87 12.63 L 29.48 12.83 L 29.08 13.02 L 28.69 13.21 L 28.30 13.39 L 27.92 13.55 L 27.53 13.70 L 27.15 13.84 L 26.77 13.97 L 26.39 14.07 L 26.01 14.17 L 25.64 14.24 L 25.26 14.29 L 24.89 14.33 L 24.52 14.35 L 24.14 14.35 L 23.77 14.34 L 23.39 14.31 L 23.01 14.26 L 22.63 14.20 L 22.25 14.12 L 21.87 14.03 L 21.48 13.93 L 21.09 13.82 L 20.70 13.71 L 20.31 13.58 L 19.91 13.46 L 19.51 13.33 L 19.11 13.20 L 18.71 13.07 L 18.31 12.95 L 17.90 12.83 L 17.49 12.72 L 17.08 12.62 L 16.67 12.53 L 16.25 12.45 L 15.83 12.39 L 15.42 12.34 L 15.00 12.31 L 14.58 12.30 L 14.16 12.30 L 13.74 12.32 L 13.32 12.36 L 12.90 12.42 L 12.49 12.50 L 12.08 12.59 L 11.67 12.70 L 11.27 12.82 L 10.86 12.95 L 10.46 13.09 L 10.07 13.24 L 9.67 13.39 L 9.28 13.54 L 8.89 13.69 L 8.51 13.84 L 8.12 13.98 L 7.74 14.11 L 7.36 14.22 L 6.97 14.30 Z" fill="url(#flow)"/><path d="M 32.00 11.35 L 39.50 11.20 L 39.50 12.80 L 32.00 12.65 Z" fill="url(#flow)"/></g><path d="M 6.97 9.70 L 7.36 9.78 L 7.74 9.89 L 8.12 10.02 L 8.51 10.16 L 8.89 10.31 L 9.28 10.46 L 9.67 10.61 L 10.07 10.76 L 10.46 10.91 L 10.86 11.05 L 11.27 11.18 L 11.67 11.30 L 12.08 11.41 L 12.49 11.50 L 12.90 11.58 L 13.32 11.64 L 13.74 11.68 L 14.16 11.70 L 14.58 11.70 L 15.00 11.69 L 15.42 11.66 L 15.83 11.61 L 16.25 11.55 L 16.67 11.47 L 17.08 11.38 L 17.49 11.28 L 17.90 11.17 L 18.31 11.05 L 18.71 10.93 L 19.11 10.80 L 19.51 10.67 L 19.91 10.54 L 20.31 10.42 L 20.70 10.29 L 21.09 10.18 L 21.48 10.07 L 21.87 9.97 L 22.25 9.88 L 22.63 9.80 L 23.01 9.74 L 23.39 9.69 L 23.77 9.66 L 24.14 9.65 L 24.52 9.65 L 24.89 9.67 L 25.26 9.71 L 25.64 9.76 L 26.01 9.83 L 26.39 9.93 L 26.77 10.03 L 27.15 10.16 L 27.53 10.30 L 27.92 10.45 L 28.30 10.61 L 28.69 10.79 L 29.08 10.98 L 29.48 11.17 L 29.87 11.37 L 30.27 11.57 L 30.67 11.77 L 31.08 11.97 L 31.49 12.16 L 31.91 12.34 L 32.32 12.49 L 32.68 11.51 L 32.29 11.37 L 31.92 11.21 L 31.53 11.02 L 31.14 10.83 L 30.74 10.63 L 30.35 10.43 L 29.94 10.23 L 29.54 10.03 L 29.14 9.84 L 28.73 9.65 L 28.32 9.48 L 27.91 9.31 L 27.49 9.16 L 27.07 9.03 L 26.66 8.91 L 26.24 8.81 L 25.82 8.73 L 25.39 8.66 L 24.97 8.62 L 24.55 8.60 L 24.12 8.60 L 23.70 8.61 L 23.28 8.65 L 22.86 8.70 L 22.45 8.77 L 22.03 8.85 L 21.62 8.95 L 21.21 9.05 L 20.80 9.17 L 20.39 9.29 L 19.99 9.42 L 19.59 9.54 L 19.19 9.67 L 18.79 9.80 L 18.40 9.93 L 18.01 10.05 L 17.62 10.16 L 17.23 10.27 L 16.84 10.36 L 16.46 10.44 L 16.08 10.51 L 15.70 10.57 L 15.32 10.61 L 14.94 10.64 L 14.56 10.65 L 14.19 10.65 L 13.81 10.64 L 13.43 10.61 L 13.05 10.57 L 12.67 10.52 L 12.28 10.46 L 11.89 10.38 L 11.50 10.30 L 11.11 10.21 L 10.71 10.11 L 10.31 10.01 L 9.91 9.90 L 9.50 9.79 L 9.09 9.68 L 8.68 9.58 L 8.27 9.49 L 7.86 9.40 L 7.44 9.34 L 7.03 9.30 Z" fill="url(#flow)"/><path d="M 7.03 14.70 L 7.44 14.66 L 7.86 14.60 L 8.27 14.51 L 8.68 14.42 L 9.09 14.32 L 9.50 14.21 L 9.91 14.10 L 10.31 13.99 L 10.71 13.89 L 11.11 13.79 L 11.50 13.70 L 11.89 13.62 L 12.28 13.54 L 12.67 13.48 L 13.05 13.43 L 13.43 13.39 L 13.81 13.36 L 14.19 13.35 L 14.56 13.35 L 14.94 13.36 L 15.32 13.39 L 15.70 13.43 L 16.08 13.49 L 16.46 13.56 L 16.84 13.64 L 17.23 13.73 L 17.62 13.84 L 18.01 13.95 L 18.40 14.07 L 18.79 14.20 L 19.19 14.33 L 19.59 14.46 L 19.99 14.58 L 20.39 14.71 L 20.80 14.83 L 21.21 14.95 L 21.62 15.05 L 22.03 15.15 L 22.45 15.23 L 22.86 15.30 L 23.28 15.35 L 23.70 15.39 L 24.12 15.40 L 24.55 15.40 L 24.97 15.38 L 25.39 15.34 L 25.82 15.27 L 26.24 15.19 L 26.66 15.09 L 27.07 14.97 L 27.49 14.84 L 27.91 14.69 L 28.32 14.52 L 28.73 14.35 L 29.14 14.16 L 29.54 13.97 L 29.94 13.77 L 30.35 13.57 L 30.74 13.37 L 31.14 13.17 L 31.53 12.98 L 31.92 12.79 L 32.29 12.63 L 32.68 12.49 L 32.32 11.51 L 31.91 11.66 L 31.49 11.84 L 31.08 12.03 L 30.67 12.23 L 30.27 12.43 L 29.87 12.63 L 29.48 12.83 L 29.08 13.02 L 28.69 13.21 L 28.30 13.39 L 27.92 13.55 L 27.53 13.70 L 27.15 13.84 L 26.77 13.97 L 26.39 14.07 L 26.01 14.17 L 25.64 14.24 L 25.26 14.29 L 24.89 14.33 L 24.52 14.35 L 24.14 14.35 L 23.77 14.34 L 23.39 14.31 L 23.01 14.26 L 22.63 14.20 L 22.25 14.12 L 21.87 14.03 L 21.48 13.93 L 21.09 13.82 L 20.70 13.71 L 20.31 13.58 L 19.91 13.46 L 19.51 13.33 L 19.11 13.20 L 18.71 13.07 L 18.31 12.95 L 17.90 12.83 L 17.49 12.72 L 17.08 12.62 L 16.67 12.53 L 16.25 12.45 L 15.83 12.39 L 15.42 12.34 L 15.00 12.31 L 14.58 12.30 L 14.16 12.30 L 13.74 12.32 L 13.32 12.36 L 12.90 12.42 L 12.49 12.50 L 12.08 12.59 L 11.67 12.70 L 11.27 12.82 L 10.86 12.95 L 10.46 13.09 L 10.07 13.24 L 9.67 13.39 L 9.28 13.54 L 8.89 13.69 L 8.51 13.84 L 8.12 13.98 L 7.74 14.11 L 7.36 14.22 L 6.97 14.30 Z" fill="url(#flow)"/><path d="M 32.00 11.35 L 39.50 11.20 L 39.50 12.80 L 32.00 12.65 Z" fill="url(#flow)"/><circle cx="15.5" cy="9.6" r="0.45" fill="#7DD3FC"/><circle cx="22.0" cy="13.6" r="0.5" fill="#7DD3FC"/><circle cx="39.5" cy="12" r="0.9" fill="#7DD3FC"/><g fill="#F8FAFC"><path d="M54.2 16.8V7.200000000000001H63.625V8.200000000000001H55.4V11.400000000000002H63.28125V12.400000000000002H55.4V15.8H63.8V16.8Z"/><path d="M67.80000000000001 16.8 73.25625000000001 11.7375 68.2 7.200000000000001H69.9L74.0875 10.962500000000002L78.14375000000001 7.200000000000001H79.84375L74.95625000000001 11.7375L80.60000000000001 16.8H78.9L74.11875 12.512500000000001L69.5 16.8Z"/><path d="M85.4 16.8V7.200000000000001H94.825V8.200000000000001H86.60000000000001V11.400000000000002H94.48125V12.400000000000002H86.60000000000001V15.8H95.0V16.8Z"/><path d="M99.82499999999999 7.200000000000001H106.25Q107.65625 7.200000000000001 108.515625 7.325000000000001Q109.375 7.450000000000001 109.81875 7.756250000000001Q110.26249999999999 8.062500000000002 110.41874999999999 8.593750000000002Q110.57499999999999 9.125000000000002 110.57499999999999 9.9375V10.1875Q110.57499999999999 10.9375 110.396875 11.478125Q110.21875 12.01875 109.7125 12.353125Q109.20625 12.6875 108.21249999999999 12.825000000000001L110.3 16.8H109.1L107.05624999999999 12.912500000000001Q106.93124999999999 12.918750000000001 106.796875 12.918750000000001Q106.6625 12.918750000000001 106.51875 12.918750000000001H101.02499999999999V16.8H99.82499999999999ZM101.02499999999999 11.881250000000001H106.33125Q107.39999999999999 11.881250000000001 108.015625 11.809375000000001Q108.63125 11.7375 108.921875 11.55625Q109.21249999999999 11.375 109.29374999999999 11.043750000000001Q109.375 10.712500000000002 109.375 10.1875V9.9375Q109.375 9.34375 109.26249999999999 9.0Q109.14999999999999 8.656250000000002 108.8125 8.493750000000002Q108.475 8.33125 107.80624999999999 8.284375Q107.13749999999999 8.2375 106.01875 8.2375H101.02499999999999Z"/><path d="M116.04375 16.8V7.200000000000001H117.24375V16.8Z"/><path d="M133.0625 14.025Q133.0625 13.46875 132.975 13.15Q132.8875 12.83125 132.58125 12.678125000000001Q132.275 12.525000000000002 131.63125000000002 12.478125000000002Q130.9875 12.431250000000002 129.86875 12.412500000000001L126.39375 12.3625Q125.10625 12.34375 124.325 12.20625Q123.54375 12.068750000000001 123.14375 11.771875000000001Q122.74374999999999 11.475000000000001 122.609375 10.975000000000001Q122.475 10.475000000000001 122.475 9.725000000000001Q122.475 8.906250000000002 122.659375 8.375000000000002Q122.84375 7.843750000000002 123.328125 7.543750000000002Q123.8125 7.243750000000002 124.69999999999999 7.121875000000002Q125.58749999999999 7.000000000000002 126.99374999999999 7.000000000000002H129.66875Q130.94375 7.000000000000002 131.79375 7.081250000000002Q132.64374999999998 7.162500000000001 133.14374999999998 7.456250000000002Q133.64374999999998 7.750000000000002 133.859375 8.368750000000002Q134.075 8.9875 134.075 10.068750000000001H132.875Q132.875 9.231250000000001 132.715625 8.803125000000001Q132.55625 8.375000000000002 132.190625 8.218750000000002Q131.825 8.062500000000002 131.20625 8.05Q130.5875 8.037500000000001 129.66875 8.037500000000001H127.05624999999999Q125.9375 8.037500000000001 125.265625 8.08125Q124.59375 8.125000000000002 124.25 8.281250000000002Q123.90625 8.437500000000002 123.790625 8.781250000000002Q123.675 9.125000000000002 123.675 9.725000000000001Q123.675 10.231250000000001 123.75625 10.537500000000001Q123.83749999999999 10.84375 124.12187499999999 11.003125Q124.40625 11.162500000000001 125.0 11.221875Q125.59375 11.28125 126.61874999999999 11.293750000000001L130.34375 11.34375Q131.65625 11.3625 132.440625 11.496875000000001Q133.225 11.631250000000001 133.615625 11.931250000000002Q134.00625 12.231250000000001 134.13437499999998 12.740625000000001Q134.2625 13.25 134.2625 14.025Q134.2625 14.86875 134.10312499999998 15.440625Q133.94375 16.0125 133.4875 16.35625Q133.03125 16.7 132.16875 16.85Q131.30625 17.0 129.9 17.0H126.975Q125.69375 17.0 124.82499999999999 16.887500000000003Q123.95625 16.775000000000002 123.440625 16.434375000000003Q122.925 16.09375 122.69999999999999 15.41875Q122.475 14.74375 122.475 13.61875H123.675Q123.675 14.5 123.81875 14.98125Q123.96249999999999 15.4625 124.32187499999999 15.671875Q124.68124999999999 15.881250000000001 125.328125 15.921875Q125.975 15.9625 126.975 15.9625H129.8375Q130.95625 15.9625 131.60625 15.890625Q132.25625 15.818750000000001 132.56875 15.615625000000001Q132.88125 15.412500000000001 132.971875 15.03125Q133.0625 14.65 133.0625 14.025Z"/></g></svg>